<svg xmlns="http://www.w3.org/2000/svg" viewBox="0 0 24 24" height="24" width="24"><title>america-football-11.svg</title><rect fill="none" x="0" y="0" width="24" height="24"></rect><rect x="1" y="1" rx="10.5" ry="10.5" width="21" height="21" stroke="#140000" style="stroke-linejoin:round;stroke-miterlimit:4;" fill="#140000" stroke-width="3"></rect><rect x="1" y="1" width="21" height="21" rx="10.5" ry="10.5" fill="#ffffff"></rect><path fill="#ed1fb6" transform="translate(6 6)" d="M5.53,2C2.47,2,1,5.5,1,5.5S2.47,9,5.53,9S10,5.5,10,5.5S8.6,2,5.53,2z M7,6H4C3.7239,6,3.5,5.7761,3.5,5.5S3.7239,5,4,5h3
	c0.2761,0,0.5,0.2239,0.5,0.5S7.2761,6,7,6z"></path></svg>