<svg xmlns="http://www.w3.org/2000/svg" viewBox="0 0 28 28" height="28" width="28"><title>building-15.svg</title><rect fill="none" x="0" y="0" width="28" height="28"></rect><rect x="1" y="1" rx="12.5" ry="12.5" width="25" height="25" stroke="#140000" style="stroke-linejoin:round;stroke-miterlimit:4;" fill="#140000" stroke-width="3"></rect><rect x="1" y="1" width="25" height="25" rx="12.5" ry="12.5" fill="#ffffff"></rect><path fill="#ed1fb6" transform="translate(6 6)" d="M3,2v11h5v-3h3v3h1V2H3z M7,12H4v-2h3V12z M7,9H4V7h3V9z M7,6H4V4h3V6z M11,9H8V7h3V9z M11,6H8V4h3V6z"></path></svg>