<svg xmlns="http://www.w3.org/2000/svg" viewBox="0 0 24 24" height="24" width="24"><title>circle-stroked-11.svg</title><rect fill="none" x="0" y="0" width="24" height="24"></rect><rect x="1" y="1" rx="10.5" ry="10.5" width="21" height="21" stroke="#140000" style="stroke-linejoin:round;stroke-miterlimit:4;" fill="#140000" stroke-width="3"></rect><rect x="1" y="1" width="21" height="21" rx="10.5" ry="10.5" fill="#ffffff"></rect><path fill="#ed1fb6" transform="translate(6 6)" d="M5.5,0C8.5376,0,11,2.4624,11,5.5S8.5376,11,5.5,11S0,8.5376,0,5.5
	S2.4624,0,5.5,0z M5.5,1.2222c-2.3626,0-4.2778,1.9152-4.2778,4.2778S3.1374,9.7778,5.5,9.7778S9.7778,7.8626,9.7778,5.5
	S7.8626,1.2222,5.5,1.2222z"></path></svg>