<svg xmlns="http://www.w3.org/2000/svg" viewBox="0 0 28 28" height="28" width="28"><title>drinking-water-15.svg</title><rect fill="none" x="0" y="0" width="28" height="28"></rect><rect x="1" y="1" rx="12.5" ry="12.5" width="25" height="25" stroke="#140000" style="stroke-linejoin:round;stroke-miterlimit:4;" fill="#140000" stroke-width="3"></rect><rect x="1" y="1" width="25" height="25" rx="12.5" ry="12.5" fill="#ffffff"></rect><path fill="#ed1fb6" transform="translate(6 6)" d="M6,1A2,2,0,0,0,4,3V6.5a0.5,0.5,0,0,0,.5.5h2A0.5,0.5,0,0,0,7,6.5v-2A0.5,0.5,0,0,1,7.5,4H14V1H6Z"></path><path fill="#ed1fb6" transform="translate(6 6)" d="M7,15H4a0.5,0.5,0,0,1-.48-0.38L2,8.62A0.5,0.5,0,0,1,2.5,8h6A0.5,0.5,0,0,1,9,8.62l-1.5,6A0.5,0.5,0,0,1,7,15ZM3.65,11l3.71,0L7.86,9H3.14Z"></path></svg>