<svg xmlns="http://www.w3.org/2000/svg" viewBox="0 0 28 28" height="28" width="28"><title>entrance-alt1-15.svg</title><rect fill="none" x="0" y="0" width="28" height="28"></rect><rect x="1" y="1" rx="12.5" ry="12.5" width="25" height="25" stroke="#140000" style="stroke-linejoin:round;stroke-miterlimit:4;" fill="#140000" stroke-width="3"></rect><rect x="1" y="1" width="25" height="25" rx="12.5" ry="12.5" fill="#ffffff"></rect><path fill="#ed1fb6" transform="translate(6 6)" d="M6.554,9.639a.5.5,0,0,0,.707.707L9.928,7.669a.25.25,0,0,0,0-.354h0L7.261,4.639a.5.5,0,0,0-.707.707L8.2,7H1.5a.5.5,0,0,0,0,1H8.2ZM12,1H5.5a.5.5,0,0,0,0,1h6a.5.5,0,0,1,.5.5v10a.5.5,0,0,1-.5.5H5.25a.5.5,0,0,0,0,1H12a1,1,0,0,0,1-1V2A1,1,0,0,0,12,1Z"></path></svg>