<svg xmlns="http://www.w3.org/2000/svg" viewBox="0 0 24 24" height="24" width="24"><title>home-11.svg</title><rect fill="none" x="0" y="0" width="24" height="24"></rect><rect x="1" y="1" rx="10.5" ry="10.5" width="21" height="21" stroke="#140000" style="stroke-linejoin:round;stroke-miterlimit:4;" fill="#140000" stroke-width="3"></rect><rect x="1" y="1" width="21" height="21" rx="10.5" ry="10.5" fill="#ffffff"></rect><path fill="#ed1fb6" transform="translate(6 6)" d="M10,4.75A.25.25,0,0,1,9.75,5H1.25A.25.25,0,0,1,1,4.75a.261.261,0,0,1,.08-.19L5.317,1.106l.016-.016a.248.248,0,0,1,.35.016L8,2.995V1.5a.5.5,0,0,1,1,0V3.81l.92.75A.261.261,0,0,1,10,4.75Zm-8,5a.248.248,0,0,0,.246.25H5V8H6v2H8.752A.248.248,0,0,0,9,9.752H9V6H2Z"></path></svg>