<svg xmlns="http://www.w3.org/2000/svg" viewBox="0 0 24 24" height="24" width="24"><title>landmark-11.svg</title><rect fill="none" x="0" y="0" width="24" height="24"></rect><rect x="1" y="1" rx="10.5" ry="10.5" width="21" height="21" stroke="#140000" style="stroke-linejoin:round;stroke-miterlimit:4;" fill="#140000" stroke-width="3"></rect><rect x="1" y="1" width="21" height="21" rx="10.5" ry="10.5" fill="#ffffff"></rect><path fill="#ed1fb6" transform="translate(6 6)" d="M9.5,9H8V5h1l1-2C9.3,3.1,8.7,3.1,8,3C7.3,2.7,6.6,2.4,6,2V1.5C6,1.2,5.8,1,5.5,1S5,1.2,5,1.5V2C4.4,2.4,3.7,2.7,3,3
	C2.3,3.1,1.7,3.1,1,3l1,2h1v4H1.5C1.2,9,1,9.2,1,9.5S1.2,10,1.5,10h8C9.8,10,10,9.8,10,9.5S9.8,9,9.5,9z M7,9H4V5h3V9z"></path></svg>