<svg xmlns="http://www.w3.org/2000/svg" viewBox="0 0 24 24" height="24" width="24"><title>town-11.svg</title><rect fill="none" x="0" y="0" width="24" height="24"></rect><rect x="1" y="1" rx="10.5" ry="10.5" width="21" height="21" stroke="#140000" style="stroke-linejoin:round;stroke-miterlimit:4;" fill="#140000" stroke-width="3"></rect><rect x="1" y="1" width="21" height="21" rx="10.5" ry="10.5" fill="#ffffff"></rect><path fill="#ed1fb6" transform="translate(6 6)" d="M3.695,1.1a.256.256,0,0,0-.4,0L1.055,3.931A.254.254,0,0,0,1,4.088V9.75a.25.25,0,0,0,.25.25h1.5A.25.25,0,0,0,3,9.75V8H4V9.75a.25.25,0,0,0,.25.25H5V5.5a.615.615,0,0,1,.147-.4L6,4ZM3,7H2V6H3ZM3,5H2V4H3ZM8.194,3.742a.248.248,0,0,0-.387,0L6.054,5.932A.249.249,0,0,0,6,6.087V9.752A.248.248,0,0,0,6.248,10h3.5A.248.248,0,0,0,10,9.756h0V6.087a.249.249,0,0,0-.054-.155ZM7,6H8V7H7ZM9,9H8V8H9Z"></path></svg>